<?xml version="1.0" encoding="iso-8859-1"?>
<!-- Uploaded to: SVG Repo, www.svgrepo.com, Generator: SVG Repo Mixer Tools -->
<svg fill="#000000" height="800px" width="800px" version="1.1" id="Layer_1" xmlns="http://www.w3.org/2000/svg" xmlns:xlink="http://www.w3.org/1999/xlink" 
	 viewBox="0 0 512 512" xml:space="preserve">
<g>
	<g>
		<g>
			<path d="M143.891,239.572c53.747,0,97.473-43.725,97.473-97.472s-43.725-97.472-97.473-97.472
				c-53.747,0-97.472,43.725-97.472,97.472S90.144,239.572,143.891,239.572z M143.891,80.747c33.83,0,61.352,27.522,61.352,61.351
				c0,33.829-27.522,61.351-61.352,61.351c-33.83,0-61.351-27.522-61.351-61.351C82.54,108.27,110.061,80.747,143.891,80.747z"/>
			<path d="M368.109,239.572c53.747,0,97.472-43.725,97.472-97.472s-43.725-97.472-97.472-97.472s-97.473,43.725-97.473,97.472
				C270.637,195.846,314.363,239.572,368.109,239.572z M368.109,80.747c33.83,0,61.351,27.522,61.351,61.351
				c0,33.829-27.522,61.351-61.351,61.351c-33.829,0-61.352-27.522-61.352-61.351C306.758,108.27,334.28,80.747,368.109,80.747z"/>
			<path d="M255.995,310.254C171.658,205.199,0,264.747,0,400.513v48.799c0,9.974,8.086,18.06,18.06,18.06h251.654H493.94
				c9.974,0,18.06-8.086,18.06-18.06v-48.799C512,264.705,340.223,205.289,255.995,310.254z M251.654,431.251H36.121v-30.739
				c0-59.42,48.346-107.76,107.772-107.76c59.988,0,107.76,48.534,107.76,107.76V431.251z M475.879,431.251H287.774
				c0-33.754,2.149-55.077-11.501-87.179c19.558-31.862,54.011-51.32,91.833-51.32c59.426,0,107.772,48.34,107.772,107.76V431.251z"
				/>
		</g>
	</g>
</g>
</svg>