<svg xmlns="http://www.w3.org/2000/svg" xmlns:xlink="http://www.w3.org/1999/xlink" version="1.1" width="256" height="256" viewBox="0 0 256 256" xml:space="preserve">

<defs>
</defs>
<g style="stroke: none; stroke-width: 0; stroke-dasharray: none; stroke-linecap: butt; stroke-linejoin: miter; stroke-miterlimit: 10; fill: none; fill-rule: nonzero; opacity: 1;" transform="translate(1.4065934065934016 1.4065934065934016) scale(2.81 2.81)" >
	<path d="M 88.179 30.195 c -2.019 -7.928 -6.212 -11.62 -13.197 -11.62 H 4.706 C 2.111 18.574 0 20.685 0 23.281 v 35.948 c 0 2.248 1.83 4.078 4.079 4.078 h 4.858 c 0.576 4.57 4.478 8.119 9.202 8.119 s 8.626 -3.549 9.202 -8.119 H 66.23 c 0.576 4.57 4.479 8.119 9.203 8.119 s 8.626 -3.549 9.202 -8.119 h 1.316 c 2.232 0 4.049 -1.817 4.049 -4.049 C 90.008 46.054 89.885 36.898 88.179 30.195 z M 19.058 40.746 c -0.152 0 -0.276 -0.124 -0.276 -0.276 V 29.988 c 0 -0.152 0.124 -0.276 0.276 -0.276 h 14.795 v 11.033 H 19.058 z M 36.819 29.713 h 15.07 v 11.033 h -15.07 V 29.713 z M 54.856 29.713 h 15.07 v 11.033 h -15.07 V 29.713 z M 72.893 29.713 h 12.071 c 0.119 0.39 0.232 0.794 0.339 1.214 c 1.024 4.02 1.447 9.088 1.618 15.542 c -4.406 -3.381 -9.025 -5.24 -14.028 -5.642 V 29.713 z M 18.138 68.458 c -3.482 0 -6.316 -2.833 -6.316 -6.316 c 0 -3.483 2.833 -6.316 6.316 -6.316 c 3.482 0 6.316 2.833 6.316 6.316 C 24.453 65.625 21.62 68.458 18.138 68.458 z M 75.433 68.458 c -3.483 0 -6.317 -2.833 -6.317 -6.316 c 0 -3.483 2.834 -6.316 6.317 -6.316 s 6.316 2.833 6.316 6.316 C 81.748 65.625 78.915 68.458 75.433 68.458 z M 85.951 60.339 h -1.414 c -0.842 -4.258 -4.602 -7.479 -9.104 -7.479 s -8.263 3.221 -9.105 7.479 H 27.241 c -0.842 -4.258 -4.602 -7.479 -9.104 -7.479 s -8.262 3.221 -9.104 7.479 H 4.078 c -0.613 0 -1.112 -0.498 -1.112 -1.111 V 23.281 c 0 -0.959 0.78 -1.739 1.74 -1.739 h 70.275 c 4.192 0 6.978 1.598 8.813 5.204 H 19.058 c -1.788 0 -3.243 1.455 -3.243 3.243 V 40.47 c 0 1.788 1.455 3.243 3.243 3.243 l 52.318 0 c 5.604 0.129 10.718 2.328 15.619 6.68 c 0.033 2.728 0.039 5.674 0.037 8.864 C 87.032 59.854 86.547 60.339 85.951 60.339 z" style="stroke: none; stroke-width: 1; stroke-dasharray: none; stroke-linecap: butt; stroke-linejoin: miter; stroke-miterlimit: 10; fill: rgb(0,0,0); fill-rule: nonzero; opacity: 1;" transform=" matrix(1 0 0 1 0 0) " stroke-linecap="round" />
	<circle cx="18.142" cy="62.142" r="2.122" style="stroke: none; stroke-width: 1; stroke-dasharray: none; stroke-linecap: butt; stroke-linejoin: miter; stroke-miterlimit: 10; fill: rgb(0,0,0); fill-rule: nonzero; opacity: 1;" transform="  matrix(1 0 0 1 0 0) "/>
	<circle cx="75.432" cy="62.142" r="2.122" style="stroke: none; stroke-width: 1; stroke-dasharray: none; stroke-linecap: butt; stroke-linejoin: miter; stroke-miterlimit: 10; fill: rgb(0,0,0); fill-rule: nonzero; opacity: 1;" transform="  matrix(1 0 0 1 0 0) "/>
</g>
</svg>